<svg xmlns="http://www.w3.org/2000/svg" viewBox="0 0 800 500" width="800" height="500" role="img">
<rect width="800" height="500" fill="#e6dfe9"/>
<title>Illustration of an aircraft climbing after take-off</title>
<circle cx="150" cy="120" r="60" fill="#fff9ec" opacity=".6"/>
<path d="M0 400c120-40 220 10 340-20s200-70 460-40v140H0Z" fill="#e8dcc4"/>
<g transform="rotate(-18 400 250)">
  <path d="M250 250h300l70 22-70 22H250l-40-22z" fill="#3f2f4a"/>
  <path d="M430 272l-40 96 34-4 74-92z" fill="#3f2f4a" opacity=".8"/>
  <path d="M430 250l-40-96 34 4 74 92z" fill="#3f2f4a" opacity=".9"/>
  <path d="M556 262l50 10-50 10z" fill="#b34a08"/>
  <g fill="#fff9ec" opacity=".85">
    <circle cx="300" cy="262" r="6"/><circle cx="330" cy="262" r="6"/><circle cx="360" cy="262" r="6"/>
  </g>
</g>
<g stroke="#fff9ec" stroke-width="9" stroke-linecap="round" opacity=".65">
  <path d="M120 330c60-14 120-14 180 0"/><path d="M90 372c70-16 140-16 210 0"/>
</g></svg>